<svg xmlns="http://www.w3.org/2000/svg" version="1.1" xmlns:xlink="http://www.w3.org/1999/xlink" xmlns:svgjs="http://svgjs.dev/svgjs" width="1000" height="750" viewBox="0 0 1000 750"><rect width="1000" height="750" fill="#0080ff"></rect><g transform="matrix(0.834,0,0,0.834,82.49454545454546,115.4193570850203)"><svg viewBox="0 0 396 247" data-background-color="#0080ff" preserveAspectRatio="xMidYMid meet" height="623" width="1000" xmlns="http://www.w3.org/2000/svg" xmlns:xlink="http://www.w3.org/1999/xlink"><g id="tight-bounds" transform="matrix(1,0,0,1,0.2400000000000091,-0.09999999999999432)"><svg viewBox="0 0 395.52 247.2" height="247.2" width="395.52"><g><svg viewBox="0 0 395.52 247.2" height="247.2" width="395.52"><g transform="matrix(1,0,0,1,69.01808477237049,0)"><svg viewBox="0 0 257.483830455259 247.2" height="247.2" width="257.483830455259"><g><svg viewBox="0 0 257.483830455259 247.2" height="247.2" width="257.483830455259"><g><svg viewBox="0 0 257.483830455259 247.2" height="247.2" width="257.483830455259"><g><svg viewBox="0 0 257.483830455259 247.2" height="247.2" width="257.483830455259"><g id="textblocktransform"><svg viewBox="0 0 257.483830455259 247.2" height="247.2" width="257.483830455259" id="textblock"><g><svg viewBox="0 0 257.483830455259 247.2" height="247.2" width="257.483830455259"><g transform="matrix(1,0,0,1,0,0)"><svg width="257.483830455259" viewBox="4.880000114440918 -31.850000381469727 33.16999816894531 31.850000381469727" height="247.2" data-palette-color="#ffffff"><path d="M4.88 0L4.88-31.85 11.7-31.85 21.8-10.93 21.35-10.93 31.45-31.85 38.05-31.85 38.05 0 33.25 0 33.25-26.63 34.02-26.63 23.13-3.78 20-3.78 9.15-26.5 9.63-26.5 9.63 0 4.88 0Z" opacity="1" transform="matrix(1,0,0,1,0,0)" fill="#ffffff" class="undefined-text-0" data-fill-palette-color="primary" id="text-0"></path></svg></g></svg></g></svg></g></svg></g></svg></g></svg></g></svg></g></svg></g><defs></defs></svg><rect width="395.52" height="247.2" fill="none" stroke="none" visibility="hidden"></rect></g></svg></g></svg>